<svg width="121" height="41" viewBox="0 0 121 41" fill="none" xmlns="http://www.w3.org/2000/svg">
<path d="M13.482 32.54C10.89 32.54 8.67 31.976 6.822 30.848C4.974 29.708 3.552 28.124 2.556 26.096C1.572 24.068 1.08 21.716 1.08 19.04C1.08 16.364 1.572 14.012 2.556 11.984C3.552 9.956 4.974 8.378 6.822 7.25C8.67 6.11 10.89 5.54 13.482 5.54C16.074 5.54 18.294 6.11 20.142 7.25C22.002 8.378 23.424 9.956 24.408 11.984C25.404 14.012 25.902 16.364 25.902 19.04C25.902 21.716 25.404 24.068 24.408 26.096C23.424 28.124 22.002 29.708 20.142 30.848C18.294 31.976 16.074 32.54 13.482 32.54ZM13.482 28.454C15.222 28.466 16.668 28.082 17.82 27.302C18.984 26.522 19.854 25.424 20.43 24.008C21.018 22.592 21.312 20.936 21.312 19.04C21.312 17.144 21.018 15.5 20.43 14.108C19.854 12.704 18.984 11.612 17.82 10.832C16.668 10.052 15.222 9.65 13.482 9.626C11.742 9.614 10.296 9.998 9.144 10.778C7.992 11.558 7.122 12.656 6.534 14.072C5.958 15.488 5.67 17.144 5.67 19.04C5.67 20.936 5.958 22.586 6.534 23.99C7.11 25.382 7.974 26.468 9.126 27.248C10.29 28.028 11.742 28.43 13.482 28.454ZM28.3448 32V5.54H32.6828V32H28.3448Z" fill="#101913"/>
<path d="M46.1687 32.54C44.2727 32.54 42.5627 32.21 41.0387 31.55C39.5267 30.89 38.2787 29.948 37.2947 28.724C36.3227 27.488 35.7047 26.024 35.4407 24.332L39.9407 23.648C40.3247 25.184 41.1107 26.372 42.2987 27.212C43.4987 28.052 44.8787 28.472 46.4387 28.472C47.3627 28.472 48.2327 28.328 49.0487 28.04C49.8647 27.752 50.5247 27.332 51.0287 26.78C51.5447 26.228 51.8027 25.55 51.8027 24.746C51.8027 24.386 51.7427 24.056 51.6227 23.756C51.5027 23.444 51.3227 23.168 51.0827 22.928C50.8547 22.688 50.5547 22.472 50.1827 22.28C49.8227 22.076 49.4027 21.902 48.9227 21.758L42.2267 19.778C41.6507 19.61 41.0267 19.388 40.3547 19.112C39.6947 18.824 39.0647 18.434 38.4647 17.942C37.8767 17.438 37.3907 16.802 37.0067 16.034C36.6347 15.254 36.4487 14.294 36.4487 13.154C36.4487 11.486 36.8687 10.088 37.7087 8.96C38.5607 7.82 39.7007 6.968 41.1287 6.404C42.5687 5.84 44.1647 5.564 45.9167 5.576C47.6927 5.588 49.2767 5.894 50.6687 6.494C52.0607 7.082 53.2247 7.94 54.1607 9.068C55.0967 10.196 55.7567 11.558 56.1407 13.154L51.4787 13.964C51.2867 13.052 50.9147 12.278 50.3627 11.642C49.8227 10.994 49.1567 10.502 48.3647 10.166C47.5847 9.83 46.7507 9.65 45.8627 9.626C44.9987 9.614 44.1947 9.746 43.4507 10.022C42.7187 10.286 42.1247 10.67 41.6687 11.174C41.2247 11.678 41.0027 12.266 41.0027 12.938C41.0027 13.574 41.1947 14.096 41.5787 14.504C41.9627 14.9 42.4367 15.218 43.0007 15.458C43.5767 15.686 44.1587 15.878 44.7467 16.034L49.3907 17.33C50.0267 17.498 50.7407 17.726 51.5327 18.014C52.3247 18.302 53.0867 18.704 53.8187 19.22C54.5507 19.736 55.1507 20.414 55.6187 21.254C56.0987 22.094 56.3387 23.162 56.3387 24.458C56.3387 25.802 56.0567 26.984 55.4927 28.004C54.9407 29.012 54.1907 29.852 53.2427 30.524C52.2947 31.196 51.2087 31.7 49.9847 32.036C48.7727 32.372 47.5007 32.54 46.1687 32.54ZM72.1808 32V22.64C72.1808 22.028 72.1388 21.35 72.0548 20.606C71.9708 19.862 71.7728 19.148 71.4608 18.464C71.1608 17.768 70.7048 17.198 70.0928 16.754C69.4928 16.31 68.6768 16.088 67.6448 16.088C67.0928 16.088 66.5468 16.178 66.0068 16.358C65.4668 16.538 64.9748 16.85 64.5308 17.294C64.0988 17.726 63.7508 18.326 63.4868 19.094C63.2228 19.85 63.0908 20.822 63.0908 22.01L60.5168 20.912C60.5168 19.256 60.8348 17.756 61.4708 16.412C62.1188 15.068 63.0668 14 64.3148 13.208C65.5628 12.404 67.0988 12.002 68.9228 12.002C70.3628 12.002 71.5508 12.242 72.4868 12.722C73.4228 13.202 74.1668 13.814 74.7188 14.558C75.2708 15.302 75.6788 16.094 75.9428 16.934C76.2068 17.774 76.3748 18.572 76.4468 19.328C76.5308 20.072 76.5728 20.678 76.5728 21.146V32H72.1808ZM58.6988 32V6.08H62.5688V19.724H63.0908V32H58.6988ZM88.356 32.54C86.412 32.54 84.714 32.102 83.262 31.226C81.81 30.35 80.682 29.144 79.878 27.608C79.086 26.06 78.69 24.284 78.69 22.28C78.69 20.24 79.098 18.452 79.914 16.916C80.73 15.38 81.864 14.18 83.316 13.316C84.768 12.452 86.448 12.02 88.356 12.02C90.312 12.02 92.016 12.458 93.468 13.334C94.92 14.21 96.048 15.422 96.852 16.97C97.656 18.506 98.058 20.276 98.058 22.28C98.058 24.296 97.65 26.078 96.834 27.626C96.03 29.162 94.902 30.368 93.45 31.244C91.998 32.108 90.3 32.54 88.356 32.54ZM88.356 28.472C90.084 28.472 91.368 27.896 92.208 26.744C93.048 25.592 93.468 24.104 93.468 22.28C93.468 20.396 93.042 18.896 92.19 17.78C91.338 16.652 90.06 16.088 88.356 16.088C87.192 16.088 86.232 16.352 85.476 16.88C84.732 17.396 84.18 18.122 83.82 19.058C83.46 19.982 83.28 21.056 83.28 22.28C83.28 24.164 83.706 25.67 84.558 26.798C85.422 27.914 86.688 28.472 88.356 28.472ZM109.866 32.54C107.97 32.54 106.38 32.09 105.096 31.19C103.812 30.29 102.846 29.066 102.198 27.518C101.55 25.958 101.226 24.212 101.226 22.28C101.226 20.324 101.55 18.572 102.198 17.024C102.846 15.476 103.794 14.258 105.042 13.37C106.302 12.47 107.856 12.02 109.704 12.02C111.54 12.02 113.13 12.47 114.474 13.37C115.83 14.258 116.88 15.476 117.624 17.024C118.368 18.56 118.74 20.312 118.74 22.28C118.74 24.224 118.374 25.97 117.642 27.518C116.91 29.066 115.878 30.29 114.546 31.19C113.214 32.09 111.654 32.54 109.866 32.54ZM100.488 40.64V12.56H104.322V26.204H104.862V40.64H100.488ZM109.2 28.652C110.328 28.652 111.258 28.37 111.99 27.806C112.722 27.242 113.262 26.48 113.61 25.52C113.97 24.548 114.15 23.468 114.15 22.28C114.15 21.104 113.97 20.036 113.61 19.076C113.25 18.104 112.692 17.336 111.936 16.772C111.18 16.196 110.22 15.908 109.056 15.908C107.952 15.908 107.052 16.178 106.356 16.718C105.66 17.246 105.144 17.99 104.808 18.95C104.484 19.898 104.322 21.008 104.322 22.28C104.322 23.54 104.484 24.65 104.808 25.61C105.144 26.57 105.666 27.32 106.374 27.86C107.094 28.388 108.036 28.652 109.2 28.652Z" fill="white"/>
</svg>
